<?xml version="1.0" encoding="UTF-8" standalone="no"?>
<svg
   xmlns:dc="http://purl.org/dc/elements/1.1/"
   xmlns:cc="http://creativecommons.org/ns#"
   xmlns:rdf="http://www.w3.org/1999/02/22-rdf-syntax-ns#"
   xmlns:svg="http://www.w3.org/2000/svg"
   xmlns="http://www.w3.org/2000/svg"
   xmlns:xlink="http://www.w3.org/1999/xlink"
   xmlns:sodipodi="http://sodipodi.sourceforge.net/DTD/sodipodi-0.dtd"
   xmlns:inkscape="http://www.inkscape.org/namespaces/inkscape"
   width="66.297mm"
   height="83.334mm"
   version="1.1"
   viewBox="0 0 66.297 83.334"
   id="svg260"
   sodipodi:docname="webviz-logo.svg"
   inkscape:version="1.0.1 (0767f8302a, 2020-10-17)">
   <symbol id="svg_logo">
  <defs
     id="defs216">
    <linearGradient
       id="c"
       x1="-160.85"
       x2="-149.3"
       y1="122.05"
       y2="97.969"
       gradientTransform="matrix(-.57287 -.27538 -.22146 .71234 -47.281 -65.698)"
       gradientUnits="userSpaceOnUse"
       xlink:href="#b" />
    <linearGradient
       id="b">
      <stop
         stop-color="#387eb8"
         offset="0"
         id="stop198" />
      <stop
         stop-color="#366994"
         offset="1"
         id="stop200" />
    </linearGradient>
    <linearGradient
       id="h"
       x1="-169.75"
       x2="-132.82"
       y1="78.614"
       y2="80.514"
       gradientTransform="matrix(-.28241 -.61411 -.54539 .318 20.976 -89.788)"
       gradientUnits="userSpaceOnUse"
       xlink:href="#a" />
    <linearGradient
       id="a">
      <stop
         stop-color="#ffe052"
         offset="0"
         id="stop204" />
      <stop
         stop-color="#ffc331"
         offset="1"
         id="stop206" />
    </linearGradient>
    <linearGradient
       id="f"
       x1="-169.75"
       x2="-132.82"
       y1="78.614"
       y2="80.514"
       gradientTransform="matrix(-.14975 -.74066 .59564 -.18621 -32.605 -81.685)"
       gradientUnits="userSpaceOnUse"
       xlink:href="#a" />
    <linearGradient
       id="g"
       x1="-152"
       x2="-132.82"
       y1="77.864"
       y2="80.514"
       gradientTransform="matrix(.14975 -.74066 -.59564 -.18621 97.288 -77.713)"
       gradientUnits="userSpaceOnUse"
       xlink:href="#b" />
    <linearGradient
       id="e"
       x1="-165.41"
       x2="-142.27"
       y1="69.835"
       y2="106.3"
       gradientTransform="matrix(.28241 -.61411 .54539 .318 43.27 -89.935)"
       gradientUnits="userSpaceOnUse"
       xlink:href="#b" />
    <linearGradient
       id="d"
       x1="-167.98"
       x2="-140.73"
       y1="54.32"
       y2="108.56"
       gradientTransform="matrix(.57287 -.27538 .22146 .71234 114.07 -59.473)"
       gradientUnits="userSpaceOnUse"
       xlink:href="#a" />
    <linearGradient
       id="j"
       x1="11.18"
       x2="76.208"
       y1="-2124.2"
       y2="-2131.7"
       gradientTransform="matrix(.40241 0 0 .31274 30.184 698.23)"
       gradientUnits="userSpaceOnUse"
       xlink:href="#b" />
    <linearGradient
       id="k"
       x1="11.95"
       x2="-2.3082"
       y1="-2137.6"
       y2="-2226.8"
       gradientTransform="matrix(.31404 0 0 .31404 35.676 700.96)"
       gradientUnits="userSpaceOnUse"
       xlink:href="#a" />
    <linearGradient
       id="i"
       x1="12.139"
       x2=".79947"
       y1="-2139.8"
       y2="-2229.4"
       gradientTransform="matrix(.31404 0 0 .31404 35.676 700.96)"
       gradientUnits="userSpaceOnUse"
       xlink:href="#a" />
  </defs>
  <metadata
     id="metadata218">
    <rdf:RDF>
      <cc:Work
         rdf:about="">
        <dc:format>image/svg+xml</dc:format>
        <dc:type
           rdf:resource="http://purl.org/dc/dcmitype/StillImage" />
        <dc:title />
      </cc:Work>
    </rdf:RDF>
  </metadata>
  <style
     id="style220">.text {
      fill: black;
    }
    @media (prefers-color-scheme: dark) {
      .text {
        fill: white;
      }
    }</style>
  <g
     class="text"
     stroke-width=".31404"
     id="g232">
    <path
       d="m2.7806 83.333q-1.2493 0-2.03-0.7808-0.75476-0.7808-0.75476-2.3424 0-0.65066 0.20821-1.6917l1.7698-8.3544h3.7478l-1.8739 8.849q-0.07808 0.31232-0.07808 0.65066 0 1.1451 0.7808 1.1451 0.72873 0 1.2493-0.59859 0.52052-0.62462 0.83283-1.6917l1.7698-8.3544h3.7478l-1.8739 8.849q-0.13013 0.65066-0.13013 0.93694 0 0.85887 0.8849 0.85887 1.1972 0 2.2122-1.5095 1.041-1.5095 1.6657-3.5917t0.62463-3.5917q-0.05205 0.13013-0.33835 0.20821-0.28629 0.05205-0.49449 0.05205-0.44245 0-0.7027-0.41642-0.23424-0.41642-0.23424-0.9109 0-0.62462 0.39038-1.015 0.41642-0.39038 1.2232-0.39038 0.85887 0 1.2493 0.65066 0.39038 0.62463 0.39038 1.6136 0 2.3424-0.8068 5.0231-0.8068 2.6547-2.4725 4.5285-1.6657 1.8739-4.1381 1.8739-1.2753 0-2.0821-0.54656t-1.041-1.6397q-1.4575 2.1862-3.6956 2.1862z"
       id="path222" />
    <path
       d="m21.105 83.333q-1.9259 0-2.993-0.98901-1.0671-1.015-1.0671-3.1492 0-1.7958 0.7027-3.956t2.2903-3.7217q1.5876-1.5876 4.0342-1.5876 2.8629 0 2.8629 2.4985 0 1.4575-0.83283 2.6807t-2.2122 1.978q-1.3794 0.72873-2.941 0.83283-0.05205 0.7808-0.05205 1.041 0 1.2753 0.44245 1.7437 0.44245 0.44245 1.4314 0.44245 1.4054 0 2.3944-0.65066 1.015-0.65066 2.2122-1.978h0.8849q-2.8889 4.8149-7.1573 4.8149zm0.05205-6.6627q0.96297-0.05205 1.8218-0.67669 0.8849-0.62463 1.4054-1.5876 0.54656-0.96297 0.54656-2.03 0-1.0671-0.65066-1.0671-0.93694 0-1.8479 1.6397-0.8849 1.6397-1.2753 3.7217z"
       id="path224" />
    <path
       d="m30.859 83.333q-1.7698 0-2.7067-0.85887-0.93694-0.8849-0.93694-2.4725 0-0.7808 0.18218-1.4835l2.7848-13.039 3.852-0.52052-1.2493 5.8559q0.72873-0.44245 1.1972-0.57259 0.46848-0.15616 0.93694-0.15616 3.0711 0 3.0711 4.4506 0 1.7958-0.7027 3.852-0.67669 2.03-2.2903 3.4874-1.5876 1.4575-4.1381 1.4575zm1.4575-2.5245q0.8068 0 1.5095-0.98901 0.7027-1.015 1.1191-2.4985 0.41642-1.5095 0.41642-2.8889 0-1.041-0.36438-1.7698-0.36435-0.72873-1.015-0.72873-0.39038 0-0.8849 0.13013-0.46848 0.1041-0.65066 0.33835l-1.4314 6.6105q-0.07808 0.31232-0.07808 0.59859 0 1.1972 1.3794 1.1972z"
       id="path226" />
    <path
       d="m41.904 83.333q-1.5095 0-2.3684-0.75476-0.83283-0.7808-0.83283-2.3163 0-0.62462 0.13013-1.2493l1.8739-8.849h3.7478l-1.8739 8.849q-0.13013 0.65066-0.13013 0.93694 0 0.85887 0.8849 0.85887 1.1972 0 2.2122-1.5095 1.041-1.5095 1.6657-3.5917 0.62462-2.0821 0.62462-3.5917-0.05205 0.13013-0.33835 0.20821-0.28629 0.05205-0.49449 0.05205-0.44245 0-0.7027-0.41642-0.23423-0.41642-0.23423-0.9109 0-0.62463 0.39038-1.015 0.41642-0.39038 1.2232-0.39038 0.85887 0 1.2493 0.65066 0.39038 0.62463 0.39038 1.6136 0 2.3424-0.8068 5.0231-0.8068 2.6547-2.4725 4.5285t-4.1381 1.8739z"
       id="path228" />
    <path
       d="m54.06 68.759q-0.85887 0-1.4575-0.59859-0.59859-0.59859-0.59859-1.4575t0.59859-1.4575q0.59859-0.62463 1.4575-0.62463t1.4575 0.62463q0.62463 0.59859 0.62463 1.4575t-0.62463 1.4575q-0.59859 0.59859-1.4575 0.59859zm-1.7698 14.575q-1.2493 0-2.03-0.7808-0.75476-0.7808-0.75476-2.3424 0-0.65066 0.20821-1.6917l1.7698-8.3544h3.7478l-1.8739 8.849q-0.1041 0.39038-0.1041 0.83283 0 0.52052 0.23424 0.75476 0.26026 0.20821 0.83283 0.20821 0.46848 0 0.83284-0.15616-0.1041 1.3013-0.93694 2.004-0.8068 0.67669-1.9259 0.67669zm9.4997-11.764h-1.4575q-0.72873 0-1.0931 0.07808-0.33835 0.07808-0.33835 0.33835 0 0.05205 0.13013 0.13013 0.15616 0.05205 0.15616 0.44245 0 0.67669-0.41642 1.041-0.41642 0.33835-0.98901 0.33835-0.49449 0-0.85887-0.28629-0.33835-0.31231-0.33835-0.85887t0.36435-1.1712q0.39038-0.62463 1.0671-1.041 0.7027-0.41642 1.5876-0.41642h6.6887l-6.3763 11.009q0.15616 0 0.57259 0.05205 0.8849 0.1041 1.4054 0.1041 1.1191 0 1.2232-0.52052-0.23423-0.02603-0.36435-0.15616-0.13013-0.15616-0.13013-0.39038 0-0.41642 0.39038-0.75476 0.39038-0.36438 1.0671-0.36438 0.57259 0 0.85887 0.33835t0.28629 0.9109q0 0.62462-0.39038 1.2753-0.39038 0.65066-1.1191 1.0931-0.72873 0.41642-1.6657 0.41642h-6.8969z"
       id="path230" />
  </g>
  <g
     stroke-width=".31404"
     id="g252">
    <path
       d="m8.8635 50.894c1.8922 3.1841 4.8042 4.5806 8.1745 4.7364 8.4097 0.38881 20.173-7.5059 25.557-14.078-0.16363-0.20943-4.4173-5.9649-10.583 1.0809-7.2499 6.4265-14.259 6.0679-17.398 2.5284-4.7367-5.3393-0.93775-14.525 4.6045-23.152 1.9904-3.0982 7.2374-8.6336 8.1267-9.8263-0.76554-0.0031-1.3929 0.05568-2.2586-0.0069-6.9833 7.0436-25.118 26.591-16.223 38.718h-3.14e-5z"
       fill="url(#c)"
       id="path234" />
    <path
       d="m0.92147 31.179c-0.96819 13.467 21.028 19.488 31.862 18.865 5.1848-0.02198 1.5808-3.0108 6.8803-7.0122-9.0016-1.7039-27.957-0.58782-30.625-10.813-1.6951-7.4223 6.2795-11.191 15.027-12.908 6.283-1.2337 5.111-0.62155 13.428-1.8955-8.6056-2.5596-35.537-0.66247-36.573 13.764z"
       fill="url(#h)"
       id="path236" />
    <path
       d="m53.586 1.8648c10.626 9.9918-4.2863 33.442-12.769 41.852-3.8969 4.253-2.9556-1.1885-9.2796-0.13303 5.7407-8.8248 20.597-23.517 16.579-34.174-1.5485-3.7682-4.9442-6.4758-13.41-2.2058-2.3009 1.1605-4.6657 2.0641-7.3627 4.997-1.6314 0.29143-1.2068 0.22931-2.7878 0.5084 2.4583-2.7493 21.504-17.923 29.03-10.847z"
       fill="url(#f)"
       id="path238" />
    <path
       d="m11.096 5.8343c-8.6487 10.343 4.2863 33.442 12.769 41.852 3.8969 4.253 2.9556-1.1885 9.2796-0.13303-5.7407-8.8248-20.597-23.517-16.579-34.174 3.0971-7.5366 11.288-4.0844 18.851 1.7007 5.4323 4.1551 4.1943 3.6963 11.174 9.4937-4.9405-9.2064-26.23-29.821-35.493-18.741z"
       fill="url(#g)"
       id="path240" />
    <path
       d="m63.324 31.031c1.0671 11.444-18.098 19.381-28.932 18.759-5.3475-3.7757-2.9218-1.6819-5.3475-3.7757 3.3291-4.2125-2.8976-0.98665 0.064623-4.1683 12.121 0.43617 25.462-0.91395 26.854-10.413 0.96574-6.5936-7.0358-10.552-15.783-12.27-3.1413-0.61687-9.1458-0.54894-10.677-0.71981-1.1827-1.4195-0.28302-0.35012-1.6062-1.9448 8.9834-0.43121 34.243 1.8238 35.427 14.533z"
       fill="url(#e)"
       id="path242" />
    <path
       d="m57.929 57.118c-6.6137 11.129-24.96 1.1424-32.71-8.2976 0.41673-1.7942 1.4035-8.0039 1.5238-9.8671 3.0756 3.7817 16.996 20.788 25.435 12.433 4.7367-5.3393 0.93772-14.525-4.6045-23.152-1.9904-3.0982-10.565-11.848-11.139-12.384 1.5491 0.17822 1.8646 0.2323 3.8596 0.38304 6.9833 7.0436 23.892 24.351 17.635 40.885z"
       fill="url(#d)"
       id="path244" />
    <path
       d="m52.295 37.615c1.3529-1.0082 2.1239-2.214 2.6877-3.107 0.41255 0.70483 3.261 6.3069 3.2334 7.0571-0.22266 0.23245-2.6836 1.9603-4.1733 2.8985-0.10492-2.415-0.70832-4.037-1.7479-6.8486z"
       fill="url(#j)"
       id="path246" />
    <path
       d="m44.853 24.957c0.30592-0.4828 1.1344-1.9987 1.3579-2.4825 4.1956 4.1117 3.553 3.7176 5.3158 6.6972-0.21765 0.3836-1.4008 2.3837-1.6903 2.8473-0.33674-0.67346-3.1322-4.6848-4.9832-7.0621z"
       fill="url(#k)"
       id="path248" />
    <path
       d="m47.974 18.391-1.0089 2.8488 6.5879 3.8577 1.7211-3.9764z"
       fill="url(#i)"
       id="path250" />
  </g>
  <g
     class="text"
     stroke-width=".10361"
     aria-label="TM"
     id="g258">
    <path
       d="m60.806 1.9142v2.5356h-0.38448v-2.5356h-0.97942v-0.31568h2.3433v0.31568z"
       id="path254" />
    <path
       d="m64.646 4.4498v-1.9022q0-0.31568 0.01821-0.60708-0.09916 0.36222-0.17808 0.56661l-0.73659 1.9427h-0.27116l-0.74671-1.9427-0.11332-0.34401-0.06678-0.2226 0.0061 0.22462 0.0081 0.38246v1.9022h-0.34404v-2.8513h0.50792l0.75885 1.9771q0.04047 0.11939 0.0769 0.257 0.03845 0.13558 0.05059 0.19629 0.01619-0.080944 0.06678-0.24486 0.05261-0.16594 0.07083-0.20843l0.74469-1.9771h0.49578v2.8513z"
       id="path256" />
  </g>
  <text
     xml:space="preserve"
     x="9.2853899"
     y="58.746181"
     id="text266"><tspan
       sodipodi:role="line"
       id="tspan264"
       x="9.2853899"
       y="58.746181"
       style="stroke-width:0.264583">some text</tspan></text>
   </symbol>
</svg>
