<?xml version="1.0" encoding="UTF-8"?>
<svg width="66.297mm" height="83.334mm" version="1.1" viewBox="0 0 66.297 83.334" xmlns="http://www.w3.org/2000/svg" xmlns:cc="http://creativecommons.org/ns#" xmlns:dc="http://purl.org/dc/elements/1.1/" xmlns:rdf="http://www.w3.org/1999/02/22-rdf-syntax-ns#" xmlns:xlink="http://www.w3.org/1999/xlink">
<defs>
<linearGradient id="c" x1="-160.85" x2="-149.3" y1="122.05" y2="97.969" gradientTransform="matrix(-1.8242 -.87691 -.7052 2.2683 -565.28 -331.39)" gradientUnits="userSpaceOnUse" xlink:href="#b"/>
<linearGradient id="b">
<stop stop-color="#387eb8" offset="0"/>
<stop stop-color="#366994" offset="1"/>
</linearGradient>
<linearGradient id="h" x1="-169.75" x2="-132.82" y1="78.614" y2="80.514" gradientTransform="matrix(-.89929 -1.9555 -1.7367 1.0126 -347.93 -408.1)" gradientUnits="userSpaceOnUse" xlink:href="#a"/>
<linearGradient id="a">
<stop stop-color="#ffe052" offset="0"/>
<stop stop-color="#ffc331" offset="1"/>
</linearGradient>
<linearGradient id="f" x1="-169.75" x2="-132.82" y1="78.614" y2="80.514" gradientTransform="matrix(-.47685 -2.3585 1.8967 -.59296 -518.55 -382.3)" gradientUnits="userSpaceOnUse" xlink:href="#a"/>
<linearGradient id="g" x1="-152" x2="-132.82" y1="77.864" y2="80.514" gradientTransform="matrix(.47685 -2.3585 -1.8967 -.59296 -104.93 -369.65)" gradientUnits="userSpaceOnUse" xlink:href="#b"/>
<linearGradient id="e" x1="-165.41" x2="-142.27" y1="69.835" y2="106.3" gradientTransform="matrix(.89929 -1.9555 1.7367 1.0126 -276.94 -408.57)" gradientUnits="userSpaceOnUse" xlink:href="#b"/>
<linearGradient id="d" x1="-167.98" x2="-140.73" y1="54.32" y2="108.56" gradientTransform="matrix(1.8242 -.87691 .7052 2.2683 -51.48 -311.57)" gradientUnits="userSpaceOnUse" xlink:href="#a"/>
<linearGradient id="j" x1="11.18" x2="76.208" y1="-2124.2" y2="-2131.7" gradientTransform="matrix(1.2814 0 0 .99586 -318.61 2101.2)" gradientUnits="userSpaceOnUse" xlink:href="#b"/>
<linearGradient id="k" x1="11.95" x2="-2.3082" y1="-2137.6" y2="-2226.8" gradientTransform="translate(-301.12,2109.9)" gradientUnits="userSpaceOnUse" xlink:href="#a"/>
<linearGradient id="i" x1="12.139" x2=".79947" y1="-2139.8" y2="-2229.4" gradientTransform="translate(-301.12,2109.9)" gradientUnits="userSpaceOnUse" xlink:href="#a"/>
</defs>
<metadata>
<rdf:RDF>
<cc:Work rdf:about="">
<dc:format>image/svg+xml</dc:format>
<dc:type rdf:resource="http://purl.org/dc/dcmitype/StillImage"/>
<dc:title/>
</cc:Work>
</rdf:RDF>
</metadata>

<g fill="#808080" stroke-width=".10361" aria-label="TM">
<path d="m60.806 1.9142v2.5356h-0.38448v-2.5356h-0.97942v-0.31568h2.3433v0.31568z"/>
<path d="m64.646 4.4498v-1.9022q0-0.31568 0.01821-0.60708-0.09916 0.36222-0.17808 0.56661l-0.73659 1.9427h-0.27116l-0.74671-1.9427-0.11332-0.34401-0.06678-0.2226 0.0061 0.22462 0.0081 0.38246v1.9022h-0.34404v-2.8513h0.50792l0.75885 1.9771q0.04047 0.11939 0.0769 0.257 0.03845 0.13558 0.05059 0.19629 0.01619-0.080944 0.06678-0.24486 0.05261-0.16594 0.07083-0.20843l0.74469-1.9771h0.49578v2.8513z"/>
</g>
</svg>
